<svg width="900" height="650" viewBox="0 0 900 650" fill="none" xmlns="http://www.w3.org/2000/svg">
  <style>
    .title { font: bold 32px sans-serif; fill: #005fab; }
    .label { font: bold 18px sans-serif; fill: #666666; }
    .box { stroke-width: 2.5; }
    .arrow { stroke-width: 3; marker-end: url(#arrowhead); }
    .arrow-label { font: 16px sans-serif; fill: #ff9900; font-weight: bold; }
    .arrow-label-blue { font: 16px sans-serif; fill: #008dd6; font-weight: bold; }
  </style>
  <defs>
    <marker id="arrowhead" markerWidth="12" markerHeight="8" refX="12" refY="4" orient="auto">
      <polygon points="0 0, 12 4, 0 8" fill="#ff9900"/>
    </marker>
  </defs>
  <!-- Title -->
  <text x="450" y="50" text-anchor="middle" class="title">Project Architecture Overview</text>
  <!-- Operator/LLM/AI -->
  <rect x="60" y="120" width="270" height="80" rx="18" fill="#01a9db" stroke="#005fab" class="box"/>
  <text x="195" y="155" text-anchor="middle" class="label" fill="#fff">Operator / LLM / AI</text>
  <text x="195" y="180" text-anchor="middle" class="label" fill="#fff">(User, Dashboard, Agent)</text>
  <!-- FastAPI MCP Server -->
  <rect x="370" y="120" width="350" height="80" rx="18" fill="#fff" stroke="#008dd6" class="box"/>
  <text x="545" y="155" text-anchor="middle" class="label">FastAPI MCP Server</text>
  <text x="545" y="180" text-anchor="middle" class="label">(app/main.py)</text>
  <!-- MQTT Broker -->
  <rect x="370" y="300" width="350" height="80" rx="18" fill="#fff" stroke="#ff9900" class="box"/>
  <text x="545" y="340" text-anchor="middle" class="label" fill="#ff9900">MQTT Broker (EMQX)</text>
  <!-- Device Simulator -->
  <rect x="370" y="480" width="350" height="80" rx="18" fill="#fff" stroke="#01a9db" class="box"/>
  <text x="545" y="520" text-anchor="middle" class="label">Device Simulator</text>
  <text x="545" y="545" text-anchor="middle" class="label">(device_simulator.py)</text>
  <!-- Arrows -->
  <!-- Operator to FastAPI -->
  <line x1="330" y1="160" x2="370" y2="160" stroke="#ff9900" class="arrow"/>
  <text x="350" y="150" text-anchor="middle" class="arrow-label">HTTP/API</text>
  <!-- FastAPI to Operator (response) -->
  <line x1="370" y1="180" x2="330" y2="180" stroke="#ff9900" class="arrow"/>
  <text x="350" y="195" text-anchor="middle" class="arrow-label">Response</text>
  <!-- FastAPI to MQTT Broker -->
  <line x1="545" y1="200" x2="545" y2="300" stroke="#008dd6" class="arrow"/>
  <text x="565" y="250" class="arrow-label-blue">MQTT Publish/Subscribe</text>
  <!-- MQTT Broker to Device Simulator -->
  <line x1="545" y1="380" x2="545" y2="480" stroke="#ff9900" class="arrow"/>
  <text x="565" y="430" class="arrow-label">MQTT Publish</text>
  <!-- Device Simulator to MQTT Broker (up arrow) -->
  <line x1="565" y1="480" x2="565" y2="380" stroke="#01a9db" class="arrow"/>
  <text x="585" y="430" class="arrow-label-blue">MQTT Data</text>
</svg>