<svg width="800" height="520" viewBox="0 0 800 520" fill="none" xmlns="http://www.w3.org/2000/svg">
  <style>
    .title { font: bold 28px sans-serif; fill: #005fab; }
    .label { font: bold 16px sans-serif; fill: #666666; }
    .box { stroke-width: 2; }
    .arrow { stroke-width: 3; marker-end: url(#arrowhead); }
  </style>
  <defs>
    <marker id="arrowhead" markerWidth="10" markerHeight="7" refX="10" refY="3.5" orient="auto">
      <polygon points="0 0, 10 3.5, 0 7" fill="#ff9900"/>
    </marker>
  </defs>
  <!-- Title -->
  <text x="400" y="40" text-anchor="middle" class="title">Project Architecture Overview</text>
  <!-- Operator/LLM/AI -->
  <rect x="40" y="100" width="200" height="70" rx="15" fill="#01a9db" stroke="#005fab" class="box"/>
  <text x="140" y="130" text-anchor="middle" class="label" fill="#fff">Operator / LLM / AI</text>
  <text x="140" y="150" text-anchor="middle" class="label" fill="#fff">(User, Dashboard, Agent)</text>
  <!-- FastAPI MCP Server -->
  <rect x="300" y="100" width="220" height="70" rx="15" fill="#fff" stroke="#008dd6" class="box"/>
  <text x="410" y="130" text-anchor="middle" class="label">FastAPI MCP Server</text>
  <text x="410" y="150" text-anchor="middle" class="label">(app/main.py)</text>
  <!-- MQTT Broker -->
  <rect x="300" y="250" width="220" height="70" rx="15" fill="#fff" stroke="#ff9900" class="box"/>
  <text x="410" y="280" text-anchor="middle" class="label" fill="#ff9900">MQTT Broker (EMQX)</text>
  <!-- Device Simulator -->
  <rect x="300" y="400" width="220" height="70" rx="15" fill="#fff" stroke="#01a9db" class="box"/>
  <text x="410" y="430" text-anchor="middle" class="label">Device Simulator</text>
  <text x="410" y="450" text-anchor="middle" class="label">(device_simulator.py)</text>
  <!-- Arrows -->
  <!-- Operator to FastAPI -->
  <line x1="240" y1="135" x2="300" y2="135" stroke="#ff9900" class="arrow"/>
  <text x="270" y="120" text-anchor="middle" font-size="14" fill="#ff9900">HTTP/API</text>
  <!-- FastAPI to Operator (response) -->
  <line x1="300" y1="155" x2="240" y2="155" stroke="#ff9900" class="arrow"/>
  <text x="270" y="170" text-anchor="middle" font-size="14" fill="#ff9900">Response</text>
  <!-- FastAPI to MQTT Broker -->
  <line x1="410" y1="170" x2="410" y2="250" stroke="#008dd6" class="arrow"/>
  <text x="420" y="210" font-size="14" fill="#008dd6">MQTT Publish/Subscribe</text>
  <!-- MQTT Broker to Device Simulator -->
  <line x1="410" y1="320" x2="410" y2="400" stroke="#01a9db" class="arrow"/>
  <text x="420" y="370" font-size="14" fill="#01a9db">MQTT Publish</text>
  <!-- Device Simulator to MQTT Broker (up arrow) -->
  <line x1="430" y1="400" x2="430" y2="320" stroke="#01a9db" class="arrow"/>
  <text x="440" y="370" font-size="14" fill="#01a9db">MQTT Data</text>
</svg>
